<svg id="Layer_1" data-name="Layer 1" xmlns="http://www.w3.org/2000/svg" viewBox="0 0 300 300"><title>ASMA-01</title><path d="M223.68,294.31H76.82c-40.27,0-73-32.18-73-71.91V77.7c0-39.73,32.72-71.91,73-71.91H223.68c40.27,0,73,32.18,73,71.91V222.4C296.85,262.13,264.13,294.31,223.68,294.31Z" fill="#ebf4ea" stroke="#9ac494" stroke-miterlimit="10" stroke-width="0.67"/><path d="M69.63,186.09a335.69,335.69,0,0,0-.36,44.58,2.28,2.28,0,0,0,.72,1.62,2.26,2.26,0,0,0,1.61.72,335.21,335.21,0,0,0,44.58-.36,328.1,328.1,0,0,0,31.28,31.82,3.23,3.23,0,0,0,1.62.72,2,2,0,0,0,1.62-.72c10.43-9.53,21.93-20.67,31.28-31.82a335.69,335.69,0,0,0,44.58.36,2.47,2.47,0,0,0,2.34-2.34,338.64,338.64,0,0,0-.36-44.58,326.83,326.83,0,0,0,31.81-31.28,3.2,3.2,0,0,0,.72-1.61,2,2,0,0,0-.72-1.62c-9.52-10.43-20.67-21.93-31.81-31.28a339.11,339.11,0,0,0,.36-44.58,2.47,2.47,0,0,0-2.34-2.34,335.22,335.22,0,0,0-44.58.36c-9.17-11.32-20.67-22.65-31.1-32a3.23,3.23,0,0,0-1.62-.72,2,2,0,0,0-1.62.72,311.19,311.19,0,0,0-31.46,31.82A335.67,335.67,0,0,0,71.6,73.2a2.26,2.26,0,0,0-1.61.72,2.28,2.28,0,0,0-.72,1.62,335.22,335.22,0,0,0,.36,44.58C58.48,129.47,47.34,141,37.81,151.4a3.23,3.23,0,0,0-.72,1.62,1.94,1.94,0,0,0,.72,1.61C47.34,165.24,58.48,176.74,69.63,186.09Z" fill="#3a833e"/><path d="M31.88,175.13C38,180.88,47,186.45,53.45,192.92c0,9.17-2.52,19.42-2.7,27.87-.36,9.52.54,19.05.18,28.4a2,2,0,0,0,.72,1.62,2.68,2.68,0,0,0,1.62.72c9.53-.36,18.87.53,28.4.18,8.45-.18,18.7-2.7,27.86-2.7,6.48,6.47,12,15.46,17.8,21.57,6.47,7,13.84,12.94,20.31,19.95a2.18,2.18,0,0,0,3.24,0c6.47-7,13.84-13.12,20.31-19.95,5.75-6.11,11.33-15.1,17.8-21.57,9.17,0,19.41,2.52,27.86,2.7,9.53.35,19.06-.54,28.4-.18a2,2,0,0,0,1.62-.72,2.68,2.68,0,0,0,.72-1.62c-.36-9.53.54-18.88.18-28.4-.18-8.45-2.7-18.7-2.7-27.87,6.48-6.47,15.46-12,21.58-17.79,7-6.47,12.94-13.84,20-20.32a2.17,2.17,0,0,0,0-3.23c-7-6.47-13.12-13.84-20-20.32-6.12-5.75-15.1-11.32-21.58-17.79,0-9.17,2.52-19.42,2.7-27.86.36-9.53-.54-19.06-.18-28.41a1.92,1.92,0,0,0-.72-1.61,2.68,2.68,0,0,0-1.62-.72c-9.52.36-18.87-.54-28.4-.18-8.45.18-18.69,2.69-27.86,2.69-6.47-6.47-12.05-15.46-17.8-21.57-6.47-7-13.84-12.94-20.31-20a2.18,2.18,0,0,0-3.24,0c-6.47,7-13.84,13.12-20.31,20-5.75,6.11-11.32,15.1-17.8,21.57-9.16,0-19.41-2.51-27.86-2.69-9.53-.36-19.05.54-28.4.18a2,2,0,0,0-1.62.72,1.73,1.73,0,0,0-.72,1.61c.36,9.53-.54,18.88-.18,28.41.18,8.44,2.7,18.69,2.7,27.86-6.47,6.47-15.46,12-21.57,17.79-7,6.48-12.95,13.85-20,20.32a2.17,2.17,0,0,0,0,3.23C18.75,161.11,24.87,168.48,31.88,175.13ZM18.75,151.4c7.91-9.53,16.9-17.8,26.25-25.89,4-3.41,8.81-6.65,12.76-10.42-.18-5.4-1.26-11.15-1.62-16.36-.89-12.23-1.43-24.63-.36-36.85a2.49,2.49,0,0,1,.9-1.62,2.42,2.42,0,0,1,1.62-.9c12.23-1.08,24.63-.54,36.85.36,5.22.36,10.79,1.44,16.36,1.62,3.78-4,7-8.81,10.43-12.77,8.09-9.34,16.36-18.33,25.88-26.24a2.9,2.9,0,0,1,1.62-.54,2.2,2.2,0,0,1,1.62.54c9.53,7.91,17.8,16.9,25.88,26.24,3.42,4,6.66,8.81,10.43,12.77,5.39-.18,11.15-1.26,16.36-1.62,12.22-.9,24.63-1.44,36.85-.36a2.49,2.49,0,0,1,1.62.9,2.42,2.42,0,0,1,.9,1.62c1.08,12.22.54,24.62-.36,36.85-.36,5.21-1.44,10.78-1.62,16.36,3.95,3.77,8.81,7,12.76,10.42,9.35,8.09,18.34,16.36,26.25,25.89a2.9,2.9,0,0,1,.54,1.62,2.17,2.17,0,0,1-.54,1.61c-7.91,9.53-16.9,17.8-26.25,25.89-3.95,3.42-8.81,6.65-12.76,10.43.18,5.39,1.26,11.14,1.62,16.35.9,12.23,1.44,24.63.36,36.86a2.49,2.49,0,0,1-.9,1.61,2.42,2.42,0,0,1-1.62.9c-12.22,1.08-24.63.54-36.85-.36-5.21-.36-10.79-1.44-16.36-1.62-3.77,4-7,8.81-10.43,12.77-8.08,9.35-16.35,18.33-25.88,26.24a2.9,2.9,0,0,1-1.62.54,2.2,2.2,0,0,1-1.62-.54c-9.52-7.91-17.79-16.89-25.88-26.24-3.42-4-6.65-8.81-10.43-12.77-5.39.18-11.14,1.26-16.36,1.62-12.22.9-24.62,1.44-36.85.36a2.49,2.49,0,0,1-1.62-.9,2.42,2.42,0,0,1-.9-1.61c-1.07-12.23-.53-24.63.36-36.86.36-5.21,1.44-10.78,1.62-16.35-3.95-3.78-8.81-7-12.76-10.43-9.17-7.91-18.34-16.18-26.25-25.71a2.87,2.87,0,0,1-.54-1.61A3,3,0,0,1,18.75,151.4Z" fill="#377532"/><path d="M127.51,195.8c-.36-6.83,1.08-12.76,4.67-18a31.19,31.19,0,0,1,6.65-7c2.52-1.8,4.14-1.08,5.58,1.62.72,1.44,1.44,3.06,2.15,4.49,3.78,7.19,11.51,8.09,16.72,1.62,1.8-2.15,3.06-4.49,4.68-6.83a12.34,12.34,0,0,1,2-2.34c.36.18.54.18.9.36a15.33,15.33,0,0,1-.72,4.14c-.9,2.52.54,3.95,2.34,5,2.16,1.26,5.75,1.26,6.83-.18a2.13,2.13,0,0,0,.18-1.8c-2.88-3.77,0-6.83.54-10.24.36-.18.54-.18.9-.36a20.51,20.51,0,0,1,2.16,3.77,16.54,16.54,0,0,1-3.6,15.64c-3.59,4.14-9,3.78-12.4-.54a10,10,0,0,0-1.44-1.79,20.92,20.92,0,0,0-1.8,2.51,14.27,14.27,0,0,1-8.63,6.11c-4.31,1.08-7.73-.18-10.06-4-1.44-2.16-2.34-4.49-3.6-6.83-1.26-2.16-2.16-2.52-4.13-.9a29.84,29.84,0,0,0-5.22,5.39c-2.33,3.24-2.15,6.11.72,9a33.63,33.63,0,0,0,13.31,7.91c2.69.9,3.95,2,3,5a13.7,13.7,0,0,0-.54,3.78c0,2.16-1.26,2.7-2.87,2-6.3-2.34-12.77-4.32-18.7-7.19-6.47-3.24-9.71-9.17-10.25-16.36-.89-10.07-1.43-20.14-2-30.38-1.26-19.06-2.16-38.29-3.6-57.35-.36-5.75-1.44-8.45-3.23-10.6-2.7,2.15-2.88,5.75-4.86,8.63a7.08,7.08,0,0,1-.36-1.08A30.23,30.23,0,0,1,107,85.43c.72-1.08,2-2.34,3-2.34.9,0,2.34,1.44,2.7,2.52,1.44,5.39,3.24,11,3.59,16.53,1.26,15.46,1.8,30.92,2.88,46.2.72,11.69,1.44,23.37,2.52,35.06a33,33,0,0,0,2.87,9A22.34,22.34,0,0,0,127.51,195.8Z" fill="#fff"/><path d="M196.72,103.4c3.23,6.83,6.47,13.48,8.63,20.67-.18.18-.54.36-.72.54-1.08-.9-2.34-1.79-4-3.23.18,3.59.36,6.47.72,9.53,1.44,16.71,3.06,33.61,4.14,50.33a68.32,68.32,0,0,1-5.76,31.64,13,13,0,0,1-8.8,7.91c-4,1.07-7.91,2.33-11.87,3.59-.18-.18-.18-.54-.36-.72a26.46,26.46,0,0,1,2.34-1.8c3.95-2.87,7.91-5.75,11.86-8.8a20,20,0,0,0,8.27-18.34c-.72-9.53-1.26-18.87-2-28.4-1.25-16-2.51-32.18-3.77-48.18a15.24,15.24,0,0,0-.72-4C192.58,110.23,195.28,107,196.72,103.4Z" fill="#fff"/><path d="M133.08,91.54c6.47,3.77,9,9.52,9.35,22.29,4.85-1.8,9.71-3.78,14.56-5.39a9.07,9.07,0,0,0,5.57-4.68,12.79,12.79,0,0,0,.72-3.59c-1.08-.18-2.33-.36-3.95-.54.54-1.08.9-2.52,1.8-3.24a3.78,3.78,0,0,1,3.41-.72,3,3,0,0,1,1.44,2.7,71.68,71.68,0,0,1-2.34,7.55c6.11-2.34,12.41-4.5,19.42-7.19-.9,2.69-1.26,4.85-3.6,5.75-18.33,7.19-36.67,14.2-55,21.39a1.61,1.61,0,0,1-.89.18c0-3.41,1.43-5.75,4.31-6.83,3.41-1.26,7-2.7,10.61-4a2.94,2.94,0,0,0,2.33-3.24c-.18-5.93-3.23-10.43-7.19-14.38C130.57,95.13,130.57,95.13,133.08,91.54Z" fill="#fff"/><path d="M85.63,216.29c.53-5,3.23-7.73,6.83-9.88A14.61,14.61,0,0,1,91,205.33c-4-2.7-4.86-5.94-2-9.71a54.66,54.66,0,0,1,8.63-8.45c2.34-2,4.67-1.8,6.11-.18a5.34,5.34,0,0,1,.36,6.65,30.77,30.77,0,0,1-2,2.52c-1.61-1.26-3-3.06-4.31-3.06-2.16.18-4.32,1.44-6.65,2.34,2.33,3.77,8.09,6.11,11.5,4.85,2.34-.9,4.5-2,6.83-3,.9-.36,1.62-.54,3.06-1.08-.54,3.05-1.44,5.39-3.78,6.65L92.64,212C90.48,213.24,88.32,214.67,85.63,216.29Z" fill="#fff"/><path d="M185,112.39c-.72,2.88-1.79,4.85-4.49,5.93-17.44,6.65-34.69,13.48-52.13,20.14-.9.35-2,.71-3.06,1.25,0-3.77,1.44-5.93,4.68-7.19,17.25-6.47,34.51-12.76,51.59-19.05A15.38,15.38,0,0,1,185,112.39Z" fill="#fff"/><path d="M201.39,88.12c-2.87-4-4.85-4-8.81-.72,1.26,2.88,6.48,5,9.71,4,1.8-.72,3.6-1.62,5.39-2.52a15.84,15.84,0,0,1,2.7-.9l.72.72c-1.08,1.62-1.8,3.6-3.24,4.5-6.47,4.13-13.3,7.73-20,11.5h-.72c.18-3.77,2.52-6.11,5.75-8.09a9.43,9.43,0,0,0-1.43-1.26c-3.06-2.15-4-5-1.62-7.91a46,46,0,0,1,7.91-7.73c1.43-1.26,3.41-2,5.21-.18,1.62,1.62,1.62,3.78.54,5.76A15.29,15.29,0,0,1,201.39,88.12Z" fill="#fff"/><path d="M158.25,153.91c4.85-2.69,9.71-5.39,14.56-8.26,0-.18-.18-.54-.18-.72-5-1.62-10.25-.72-15.46-.9,1.26-5.57,4-7.91,9.17-7.73a74.73,74.73,0,0,1,11,.72c3.24.36,3.42,1.62,2,4.49C174.79,150,167.42,153.38,158.25,153.91Z" fill="#fff"/><path d="M150.16,218.81l1.08-.54c4.31-2.34,7.55-5.93,10.78-9.53a30.45,30.45,0,0,1,5.58-5.21,9.71,9.71,0,0,1,9.34-1.8,3.89,3.89,0,0,0,5.22-2.16c.54-.89,1.08-1.61,2-2.87v3.23a18,18,0,0,0,2.88.36c.36-1.61.72-3,1.26-5a6.75,6.75,0,0,1,0,7.73c-1.26,2-2.88,1.26-4.67.9a3,3,0,0,0-2.16.54,7.57,7.57,0,0,1-7,1.44c-4.32-1.26-7.73,1.07-10.79,3.77-2.33,2.16-4.49,4.5-6.83,6.47a69.49,69.49,0,0,1-6.11,3.78Z" fill="#fff"/><path d="M93.71,173.51c-1.25-7.19-2.33-14.38-3.59-21.57-.9-5.75,0-7.37,5-10.07-1.44-1.44-1.44-1.44-4.49.36a40.78,40.78,0,0,1,1.8-5,2.68,2.68,0,0,1,1.07-.9c1.8-.9,6.66,2.16,7.55,4.49.72,1.8-.89,4.14-3.41,4.86-1.62.54-3.24,1.07-5,1.61-1.44.54-1.8,1.44-1.26,3.06a52.36,52.36,0,0,1,2.51,20.31A7,7,0,0,1,93.71,173.51Z" fill="#fff"/><path d="M140.27,155.89c.72-3,1.26-5.57,2-8.09a21.85,21.85,0,0,1,1.26-3.05c1.26-2.34,2.87-3.06,4.31-2,2,1.44,2.34,3.59.72,5.75-3.59-2.33-3.95-2.16-5.21,2.16-.72,2.7-1.26,5.57-2,8.27-.36,1.08-.9,2.16-1.44,3.59-1.25-3.59-2.51-6.65-3.59-9.7-.36-1.08-.9-2.16-2.7-1.62-.9.18-3.05-1.08-3.23-2-.18-1.26.72-2.88,1.43-4.13.36-.36,2.52-.36,2.88.36a41,41,0,0,1,4.31,6.65A22.74,22.74,0,0,1,140.27,155.89Z" fill="#fff"/><path d="M88.68,84.89a15.8,15.8,0,0,1,5.75,8.8,25,25,0,0,1-1.07,14.92c-.72,2-1.44,4-2,5.94a9.77,9.77,0,0,0-.18,3.23,3,3,0,0,0,1.62,2.16c.54.18,1.43-.72,2.15-1.08.36-.18.54-.72,1.44-.9-.72,1.62-1.26,3.42-2.16,5a2.62,2.62,0,0,1-2.33,1.25,3.38,3.38,0,0,1-2.16-2,24.07,24.07,0,0,1,0-7.19,29.72,29.72,0,0,1,2-6.48c2.69-6.83,1.62-13.12-3.42-18.51C86.7,88.3,86.7,86.86,88.68,84.89Z" fill="#fff"/></svg>