<?xml version="1.0" encoding="utf-8"?>
<!-- Generator: Adobe Illustrator 22.0.0, SVG Export Plug-In . SVG Version: 6.00 Build 0)  -->
<svg version="1.1" id="Layer_1" xmlns="http://www.w3.org/2000/svg" xmlns:xlink="http://www.w3.org/1999/xlink" x="0px" y="0px"
	 viewBox="0 0 80.7 80.7" style="enable-background:new 0 0 80.7 80.7;" xml:space="preserve">
<style type="text/css">
	.st0{fill:#377639;}
</style>
<g>
	<path class="st0" d="M30.2,40.3c-0.8,1.5-1.5,3.3-2.1,4.9c0,0.1,0,0.1,0,0.2c0,0.1,0.1,0.1,0.1,0.2c1.5,0.7,3.3,1.5,4.9,2
		c0.5,1.7,1.3,3.4,2,4.9c0,0.1,0.1,0.1,0.2,0.1c0.1,0,0.1,0,0.2,0c1.6-0.6,3.4-1.3,4.9-2.1c1.5,0.8,3.3,1.5,4.9,2.1
		c0.1,0,0.1,0,0.2,0c0.1,0,0.1-0.1,0.2-0.1c0.7-1.5,1.5-3.3,2-4.9c1.7-0.5,3.4-1.3,4.9-2c0.1,0,0.1-0.1,0.1-0.2c0-0.1,0-0.1,0-0.2
		c-0.6-1.6-1.3-3.4-2.1-4.9c0.8-1.5,1.5-3.3,2.1-4.9c0-0.1,0-0.1,0-0.2c0-0.1-0.1-0.1-0.1-0.2c-1.5-0.7-3.3-1.5-4.9-2
		c-0.5-1.7-1.3-3.4-2-4.9c0-0.1-0.1-0.1-0.2-0.1c-0.1,0-0.1,0-0.2,0c-1.6,0.6-3.4,1.3-4.9,2.1c-1.5-0.8-3.3-1.5-4.9-2.1
		c-0.1,0-0.1,0-0.2,0c-0.1,0-0.1,0.1-0.2,0.1c-0.7,1.5-1.5,3.3-2,4.9c-1.7,0.5-3.4,1.3-4.9,2c-0.1,0-0.1,0.1-0.1,0.2
		c0,0.1,0,0.1,0,0.2C28.7,37,29.4,38.7,30.2,40.3z M28.9,35.3c1.5-0.6,3.1-1.4,4.7-1.9c0.5-1.6,1.2-3.2,1.8-4.7c0,0,0.1,0,0.2,0
		c0.1-0.1,0.1-0.1,0.1-0.1c1.5,0.6,3.2,1.2,4.7,2c1.5-0.8,3.1-1.4,4.6-2c0,0,0.1,0,0.1,0.1c0.1,0,0.2,0,0.2,0
		c0.6,1.5,1.4,3.1,1.9,4.7c1.6,0.5,3.2,1.2,4.7,1.8c0,0,0,0.1,0,0.2c0.1,0.1,0.1,0.1,0.1,0.1c-0.6,1.5-1.2,3.2-2,4.7
		c0.8,1.5,1.4,3.1,2,4.6c0,0,0,0.1-0.1,0.1c0,0.1,0,0.2,0,0.2c-1.5,0.6-3.1,1.4-4.7,1.9c-0.5,1.6-1.2,3.2-1.8,4.7c0,0-0.1,0-0.2,0
		c-0.1,0.1-0.1,0.1-0.1,0.1c-1.5-0.6-3.2-1.2-4.7-2c-1.5,0.8-3.1,1.4-4.6,2c0,0-0.1,0-0.1-0.1c-0.1,0-0.2,0-0.2,0
		c-0.6-1.5-1.4-3.1-1.9-4.7c-1.6-0.5-3.2-1.2-4.7-1.8c0,0,0-0.1,0-0.2c-0.1-0.1-0.1-0.1-0.1-0.1c0.6-1.5,1.2-3.2,2-4.7
		c-0.8-1.5-1.4-3.1-2-4.6c0,0,0-0.1,0.1-0.1C28.9,35.4,28.9,35.3,28.9,35.3z"/>
	<path class="st0" d="M14.5,15.6c0.5,0.5,1,0.5,1.4,0.1c0.3-0.4,0.4-0.9-0.1-1.4c-0.4-0.4-1.1-0.5-1.6-0.4c0,0,0,0,0,0c0,0,0,0,0,0
		C14,14.5,14.1,15.2,14.5,15.6z M14.6,14.3c0.6,0,1.4,0.4,1,1.1c-0.7,0.3-1.1-0.4-1.1-1c0,0,0-0.1,0-0.1
		C14.5,14.3,14.5,14.3,14.6,14.3z"/>
	<path class="st0" d="M8.2,40.3c4.1,2,7.1,5.5,8.9,9.7c1.7,4.1,2.1,8.8,0.6,13.1c4.3-1.5,9-1.1,13.1,0.6c4.1,1.7,7.7,4.8,9.7,8.8
		c2-4.1,5.5-7.1,9.7-8.9c4.1-1.7,8.8-2.1,13.1-0.6c-1.5-4.3-1.1-9,0.6-13.1c1.7-4.1,4.8-7.7,8.8-9.7c-4.1-2-7.1-5.5-8.9-9.7
		c-1.7-4.1-2.1-8.8-0.6-13.1c-4.3,1.5-9,1.1-13.1-0.6c-4.1-1.7-7.7-4.8-9.7-8.8c-2,4.1-5.5,7.1-9.7,8.9c-4.1,1.7-8.8,2.1-13.1,0.6
		c1.5,4.3,1.1,9-0.6,13.1C15.4,34.7,12.3,38.3,8.2,40.3z M19.2,21.4c-0.1-1-0.3-2-0.5-2.9c1,0.3,1.9,0.5,2.9,0.5
		c2.8,0.2,6.9-0.2,9.5-1.3l0,0l0,0c2.6-1.1,5.8-3.7,7.6-5.9c0.7-0.8,1.2-1.6,1.7-2.5c0.5,0.9,1,1.7,1.7,2.5c1.8,2.1,5,4.8,7.6,5.8
		c0,0,0,0,0,0c0,0,0,0,0,0c2.6,1.1,6.7,1.4,9.5,1.2c1-0.1,2-0.3,2.9-0.5c-0.3,1-0.5,1.9-0.5,2.9c-0.2,2.8,0.2,6.9,1.3,9.5l0,0l0,0
		c1.1,2.6,3.7,5.8,5.9,7.6c0.8,0.7,1.6,1.2,2.5,1.7c-0.9,0.5-1.7,1-2.5,1.7c-2.1,1.8-4.8,5-5.8,7.6c0,0,0,0,0,0c0,0,0,0,0,0
		c-1.1,2.6-1.4,6.7-1.2,9.5c0.1,1,0.3,2,0.5,2.9c-1-0.3-1.9-0.5-2.9-0.5c-2.8-0.2-6.9,0.2-9.5,1.3l0,0l0,0c-2.6,1.1-5.8,3.7-7.6,5.9
		c-0.7,0.8-1.2,1.6-1.7,2.5c-0.5-0.9-1-1.7-1.7-2.5c-1.8-2.1-5-4.8-7.6-5.8c0,0,0,0,0,0c0,0,0,0,0,0c-2.6-1.1-6.7-1.4-9.5-1.2
		c-1,0.1-2,0.3-2.9,0.5c0.3-1,0.5-1.9,0.5-2.9c0.2-2.8-0.2-6.9-1.3-9.5l0,0l0,0c-1.1-2.6-3.7-5.8-5.9-7.6c-0.8-0.7-1.6-1.2-2.5-1.7
		c0.9-0.5,1.7-1,2.5-1.7c2.1-1.8,4.8-5,5.8-7.6c0,0,0,0,0,0c0,0,0,0,0,0C19,28.4,19.4,24.2,19.2,21.4z"/>
	<path class="st0" d="M14.1,66.7C14.1,66.7,14.1,66.7,14.1,66.7c0.6,0,1.2,0,1.7-0.4c0.5-0.5,0.5-1,0.1-1.4
		c-0.4-0.3-0.9-0.4-1.4,0.1C14.1,65.4,14.1,66,14.1,66.7C14.1,66.6,14.1,66.7,14.1,66.7z M15.6,65.1c0.3,0.7-0.4,1.1-1,1.1
		c0,0-0.1,0-0.1,0c0,0,0-0.1,0-0.1C14.5,65.6,14.9,64.8,15.6,65.1z"/>
	<path class="st0" d="M32.6,40.3c-0.3,1.2-0.9,2.4-1.2,3.6c0,0.1,0,0.2,0,0.2c0,0.1,0.1,0.1,0.1,0.2c1.1,0.6,2.4,1,3.4,1.6
		c0.7,1,1,2.3,1.6,3.4c0,0.1,0.1,0.1,0.2,0.1c0.1,0,0.1,0,0.2,0c1.2-0.3,2.4-1,3.6-1.3c1.2,0.3,2.4,0.9,3.6,1.2c0.1,0,0.2,0,0.2,0
		c0.1,0,0.1-0.1,0.2-0.1c0.6-1.1,1-2.4,1.6-3.4c1-0.7,2.3-1,3.4-1.6c0.1,0,0.1-0.1,0.1-0.2c0-0.1,0-0.1,0-0.2
		c-0.3-1.2-1-2.4-1.3-3.6c0.3-1.2,0.9-2.4,1.2-3.6c0-0.1,0-0.2,0-0.2c0-0.1-0.1-0.1-0.1-0.2c-1.1-0.6-2.4-1-3.4-1.6
		c-0.7-1-1-2.3-1.6-3.4c0-0.1-0.1-0.1-0.2-0.1c-0.1,0-0.1,0-0.2,0c-1.2,0.3-2.4,1-3.6,1.3c-1.2-0.3-2.4-0.9-3.6-1.2
		c-0.1,0-0.2,0-0.2,0c-0.1,0-0.1,0.1-0.2,0.1c-0.6,1.1-1,2.4-1.6,3.4c-1,0.7-2.3,1-3.4,1.6c-0.1,0-0.1,0.1-0.1,0.2
		c0,0.1,0,0.1,0,0.2C31.6,37.9,32.3,39.1,32.6,40.3z M33.1,44.4c-0.4-0.2-0.8-0.4-1.2-0.6c0,0,0,0,0,0c0,0,0,0,0,0
		c0.1-0.4,0.3-0.8,0.5-1.2c0.5,0.1,1,0.3,1.5,0.4c0,0,0,0,0,0c0,0,0,0,0,0C33.6,43.5,33.4,43.9,33.1,44.4z M34.8,45.1
		c-0.4-0.2-0.8-0.4-1.1-0.5c0.3-0.5,0.6-1.1,0.9-1.7c0-0.1,0-0.1,0-0.2c0-0.1-0.1-0.1-0.2-0.2c-0.6-0.2-1.2-0.4-1.8-0.5
		c0.2-0.4,0.3-0.8,0.4-1.2c1.2,0.3,2.4,0.7,3.6,1c0,0,0,0,0,0c0,0,0,0,0,0C35.9,43,35.4,44.1,34.8,45.1z M36.9,48.8
		C36.9,48.8,36.9,48.8,36.9,48.8C36.9,48.8,36.9,48.8,36.9,48.8c-0.2-0.4-0.4-0.8-0.6-1.2c0.5-0.3,0.9-0.5,1.4-0.8c0,0,0,0,0,0
		c0,0,0,0,0,0c0.1,0.5,0.3,1,0.4,1.5C37.7,48.5,37.3,48.7,36.9,48.8z M38.7,48.2c-0.2-0.6-0.3-1.2-0.5-1.8c0-0.1-0.1-0.1-0.2-0.2
		c-0.1,0-0.2,0-0.2,0c-0.6,0.3-1.1,0.6-1.7,0.9c-0.2-0.4-0.3-0.8-0.5-1.1c1-0.7,2.2-1.2,3.2-1.8c0,0,0,0,0,0c0,0,0,0,0,0
		c0.3,1.2,0.8,2.3,1,3.6C39.5,47.9,39.1,48,38.7,48.2z M44,48.8C44,48.8,44,48.8,44,48.8C44,48.8,44,48.8,44,48.8
		c-0.4-0.1-0.8-0.3-1.2-0.4c0.1-0.5,0.3-1,0.4-1.5c0,0,0,0,0,0c0,0,0,0,0,0c0.5,0.3,0.9,0.5,1.4,0.8C44.4,48,44.2,48.4,44,48.8z
		 M44.8,47.1c-0.5-0.3-1.1-0.6-1.7-0.9c-0.1,0-0.1,0-0.2,0c-0.1,0-0.1,0.1-0.2,0.2c-0.2,0.6-0.4,1.2-0.5,1.8
		c-0.4-0.2-0.8-0.3-1.2-0.4c0.3-1.2,0.7-2.4,1-3.6c0,0,0,0,0,0c0,0,0,0,0,0c1.1,0.6,2.2,1.1,3.2,1.8C45.1,46.3,44.9,46.7,44.8,47.1z
		 M49,43.8C49,43.8,49,43.8,49,43.8C49,43.8,49,43.8,49,43.8c-0.4,0.2-0.8,0.4-1.2,0.6c-0.3-0.5-0.5-0.9-0.8-1.4c0,0,0,0,0,0
		c0,0,0,0,0,0c0.5-0.1,1-0.3,1.5-0.4C48.7,43,48.9,43.4,49,43.8z M47.9,40.8c0.1,0.4,0.3,0.8,0.4,1.2c-0.6,0.2-1.2,0.3-1.8,0.5
		c-0.1,0-0.1,0.1-0.2,0.2c0,0.1,0,0.2,0,0.2c0.3,0.6,0.6,1.1,0.9,1.7c-0.4,0.2-0.8,0.3-1.1,0.5c-0.7-1-1.2-2.2-1.8-3.2c0,0,0,0,0,0
		c0,0,0,0,0,0C45.6,41.5,46.7,41.1,47.9,40.8z M47.8,36.2c0.4,0.2,0.8,0.4,1.2,0.6c0,0,0,0,0,0c0,0,0,0,0,0
		c-0.1,0.4-0.3,0.8-0.4,1.2c-0.5-0.1-1-0.3-1.5-0.4c0,0,0,0,0,0c0,0,0,0,0,0C47.3,37.1,47.5,36.6,47.8,36.2z M46.1,35.4
		c0.4,0.2,0.8,0.4,1.1,0.5c-0.3,0.5-0.6,1.1-0.9,1.7c0,0.1,0,0.1,0,0.2c0,0.1,0.1,0.1,0.2,0.2c0.6,0.2,1.2,0.4,1.8,0.5
		c-0.2,0.4-0.3,0.8-0.4,1.2c-1.2-0.3-2.4-0.7-3.6-1c0,0,0,0,0,0c0,0,0,0,0,0C45,37.6,45.5,36.4,46.1,35.4z M44,31.7
		C44,31.7,44,31.7,44,31.7C44,31.7,44,31.7,44,31.7c0.2,0.4,0.4,0.8,0.6,1.2c-0.5,0.3-0.9,0.5-1.4,0.8c0,0,0,0,0,0c0,0,0,0,0,0
		c-0.1-0.5-0.3-1-0.4-1.5C43.2,32,43.6,31.8,44,31.7z M42.2,32.4c0.2,0.6,0.3,1.2,0.5,1.8c0,0.1,0.1,0.1,0.2,0.2c0.1,0,0.2,0,0.2,0
		c0.6-0.3,1.1-0.6,1.7-0.9c0.2,0.4,0.3,0.8,0.5,1.1c-1,0.7-2.2,1.2-3.2,1.8c0,0,0,0,0,0c0,0,0,0,0,0c-0.3-1.2-0.8-2.3-1-3.6
		C41.4,32.7,41.8,32.5,42.2,32.4z M36.9,31.7C36.9,31.7,36.9,31.7,36.9,31.7C36.9,31.7,36.9,31.7,36.9,31.7c0.4,0.1,0.8,0.3,1.2,0.4
		c-0.1,0.5-0.3,1-0.4,1.5c0,0,0,0,0,0c0,0,0,0,0,0c-0.5-0.3-0.9-0.5-1.4-0.8C36.5,32.5,36.7,32.1,36.9,31.7z M36.1,33.4
		c0.5,0.3,1.1,0.6,1.7,0.9c0.1,0,0.1,0,0.2,0c0.1,0,0.1-0.1,0.2-0.2c0.2-0.6,0.4-1.2,0.5-1.8c0.4,0.2,0.8,0.3,1.2,0.4
		c-0.3,1.2-0.7,2.4-1,3.6c0,0,0,0,0,0c0,0,0,0,0,0c-1.1-0.6-2.2-1.1-3.2-1.8C35.8,34.2,36,33.8,36.1,33.4z M35.2,35.1
		c0.8,0.9,1.6,1.8,2.5,2.6c0.6,0.5,1.6,1.6,2.5,2.3c-0.6-0.9-1.7-1.9-2.3-2.5C37.1,36.6,36.2,35.8,35.2,35.1
		C35.3,35.1,35.3,35,35.2,35.1c1.2,0.7,2.5,1.2,3.7,1.9c0.1,0,0.1,0,0.2,0c0.1,0,0.1-0.1,0.2-0.2c0.4-1.3,0.8-2.6,1.1-3.9
		c0,0,0,0,0,0c-0.1,1.2-0.2,2.4-0.1,3.6c0,0.8,0,2.3,0.2,3.4c0.2-1.1,0.1-2.6,0.1-3.4c0.1-1.2,0-2.4-0.1-3.6c0,0,0,0,0,0
		c0.3,1.3,0.8,2.6,1.1,3.9c0,0.1,0.1,0.1,0.2,0.2c0.1,0,0.2,0,0.2,0c1.2-0.7,2.4-1.2,3.6-2c0,0,0,0,0,0c-0.9,0.8-1.8,1.6-2.6,2.5
		c-0.5,0.6-1.6,1.6-2.3,2.5c0.9-0.6,1.9-1.7,2.5-2.3c0.9-0.8,1.7-1.7,2.5-2.6c0,0,0,0,0,0c-0.7,1.2-1.3,2.4-2,3.6c0,0.1,0,0.1,0,0.2
		c0,0.1,0.1,0.1,0.2,0.2c1.3,0.4,2.6,0.8,3.9,1.1c0,0,0,0,0,0c-1.2-0.1-2.4-0.2-3.6-0.1c-0.8,0-2.3,0-3.4,0.2
		c1.1,0.2,2.6,0.1,3.4,0.1c1.2,0.1,2.4,0,3.6-0.1c0,0,0,0,0,0c-1.3,0.3-2.6,0.8-3.9,1.1c-0.1,0-0.1,0.1-0.2,0.2c0,0.1,0,0.2,0,0.2
		c0.7,1.2,1.2,2.4,2,3.6c0,0,0,0,0,0c-0.8-0.9-1.6-1.8-2.5-2.6c-0.6-0.5-1.6-1.6-2.5-2.3c0.6,0.9,1.7,1.9,2.3,2.5
		c0.8,0.9,1.7,1.7,2.6,2.5c0,0,0,0,0,0c-1.2-0.7-2.4-1.3-3.6-2c-0.1,0-0.1,0-0.2,0c-0.1,0-0.1,0.1-0.2,0.2c-0.4,1.3-0.8,2.6-1.1,3.9
		c0,0,0,0,0,0c0.1-1.2,0.2-2.4,0.1-3.6c0-0.8,0-2.3-0.2-3.4c-0.2,1.1-0.1,2.6-0.1,3.4c-0.1,1.2,0,2.4,0.1,3.6c0,0,0,0,0,0
		c-0.3-1.3-0.8-2.6-1.1-3.9c0-0.1-0.1-0.1-0.2-0.2c-0.1,0-0.2,0-0.2,0c-1.2,0.7-2.4,1.2-3.6,2c0,0,0,0,0,0c0.9-0.8,1.8-1.6,2.6-2.5
		c0.5-0.6,1.6-1.6,2.3-2.5c-0.9,0.6-1.9,1.7-2.5,2.3c-0.9,0.8-1.7,1.7-2.5,2.6c0,0,0,0,0,0c0.7-1.2,1.3-2.4,2-3.6c0-0.1,0-0.1,0-0.2
		c0-0.1-0.1-0.1-0.2-0.2c-1.3-0.4-2.6-0.8-3.9-1.1c0,0,0,0,0,0c1.2,0.1,2.4,0.2,3.6,0.1c0.8,0,2.3,0,3.4-0.2
		c-1.1-0.2-2.6-0.1-3.4-0.1c-1.2-0.1-2.4,0-3.6,0.1c0,0,0,0,0,0c1.3-0.3,2.6-0.8,3.9-1.1c0.1,0,0.1-0.1,0.2-0.2c0-0.1,0-0.2,0-0.2
		C36.5,37.5,36,36.3,35.2,35.1C35.2,35.1,35.2,35.1,35.2,35.1z M34.7,35.4c0.7,1,1.2,2.2,1.8,3.2c0,0,0,0,0,0c0,0,0,0,0,0
		c-1.2,0.3-2.3,0.8-3.6,1c-0.1-0.4-0.3-0.8-0.4-1.2c0.6-0.2,1.2-0.3,1.8-0.5c0.1,0,0.1-0.1,0.2-0.2c0-0.1,0-0.2,0-0.2
		c-0.3-0.6-0.6-1.1-0.9-1.7C34,35.8,34.4,35.6,34.7,35.4z M31.9,36.7c0.4-0.2,0.8-0.4,1.2-0.6c0.3,0.5,0.5,0.9,0.8,1.4c0,0,0,0,0,0
		c0,0,0,0,0,0c-0.5,0.1-1,0.3-1.5,0.4C32.2,37.6,32,37.1,31.9,36.7C31.9,36.7,31.9,36.7,31.9,36.7C31.9,36.7,31.9,36.7,31.9,36.7z"
		/>
	<path class="st0" d="M66.8,13.9C66.8,13.9,66.8,13.9,66.8,13.9c-0.6,0-1.2,0-1.7,0.4c-0.5,0.5-0.5,1-0.1,1.4
		c0.4,0.3,0.9,0.4,1.4-0.1C66.8,15.1,66.8,14.5,66.8,13.9C66.8,13.9,66.8,13.9,66.8,13.9z M65.3,15.4c-0.3-0.7,0.4-1.1,1-1.1
		c0,0,0.1,0,0.1,0c0,0,0,0.1,0,0.1C66.4,15,66,15.7,65.3,15.4z"/>
	<path class="st0" d="M40.4,3C40.4,3,40.4,3,40.4,3C40.4,3,40.4,3,40.4,3c-0.5,0.4-0.9,0.9-0.9,1.5c0,0.7,0.4,1,0.9,1.1
		c0.5,0,0.9-0.3,0.9-1.1C41.3,3.8,40.9,3.4,40.4,3z M40.4,5.1c-0.7-0.3-0.5-1.1-0.1-1.5c0,0,0,0,0.1-0.1c0,0,0,0,0.1,0.1
		C40.9,4,41.2,4.9,40.4,5.1z"/>
	<path class="st0" d="M23.9,26.9c-0.2,1.1-0.4,2.4-0.6,3.6c0,0,0,0,0,0c-0.2,0.8-0.4,1.6-0.8,2.3c0,0,0,0,0,0c0,0,0,0,0,0
		c-0.2,0.7-0.6,1.5-1.1,2.2c0,0,0,0,0,0c-0.7,1.1-1.5,2.1-2.1,3c-0.5,0.7-1.1,1.5-1.7,2.2c0.6,0.7,1.2,1.5,1.7,2.2
		c0.6,0.9,1.4,2,2.1,3c0,0,0,0,0,0c0.4,0.7,0.8,1.5,1.1,2.2c0,0,0,0,0,0c0,0,0,0,0,0c0.4,0.7,0.6,1.5,0.8,2.3c0,0,0,0,0,0
		c0.3,1.2,0.4,2.5,0.7,3.6c0.1,0.9,0.3,1.8,0.3,2.8c0.9,0.1,1.9,0.2,2.8,0.3c1.1,0.2,2.4,0.4,3.6,0.6c0,0,0,0,0,0
		c0.8,0.2,1.6,0.4,2.3,0.8c0,0,0,0,0,0c0,0,0,0,0,0c0.7,0.2,1.5,0.6,2.2,1.1c0,0,0,0,0,0c1.1,0.7,2.1,1.5,3,2.1
		c0.7,0.5,1.5,1.1,2.2,1.7c0.7-0.6,1.5-1.2,2.2-1.7c0.9-0.6,2-1.4,3-2.1c0,0,0,0,0,0c0.7-0.4,1.5-0.8,2.2-1.1c0,0,0,0,0,0
		c0,0,0,0,0,0c0.7-0.4,1.5-0.6,2.3-0.8c0,0,0,0,0,0c1.2-0.3,2.5-0.4,3.6-0.7c0.9-0.1,1.8-0.3,2.8-0.3c0.1-0.9,0.2-1.9,0.3-2.8
		c0.2-1.1,0.4-2.4,0.6-3.6c0,0,0,0,0,0c0.2-0.8,0.4-1.6,0.8-2.3c0,0,0,0,0,0c0,0,0,0,0,0c0.2-0.7,0.6-1.5,1.1-2.2c0,0,0,0,0,0
		c0.7-1.1,1.5-2.1,2.1-3c0.5-0.7,1.1-1.5,1.7-2.2c-0.6-0.7-1.2-1.5-1.7-2.2c-0.6-0.9-1.4-2-2.1-3c0,0,0,0,0,0
		c-0.4-0.7-0.8-1.5-1.1-2.2c0,0,0,0,0,0c0,0,0,0,0,0c-0.4-0.7-0.6-1.5-0.8-2.3c0,0,0,0,0,0c-0.3-1.2-0.4-2.5-0.7-3.6
		c-0.1-0.9-0.3-1.8-0.3-2.8c-0.9-0.1-1.9-0.2-2.8-0.3c-1.1-0.2-2.4-0.4-3.6-0.6c0,0,0,0,0,0c-0.8-0.2-1.6-0.4-2.3-0.8c0,0,0,0,0,0
		c0,0,0,0,0,0c-0.7-0.2-1.5-0.6-2.2-1.1c0,0,0,0,0,0c-1.1-0.7-2.1-1.5-3-2.1c-0.7-0.5-1.5-1.1-2.2-1.7c-0.7,0.6-1.5,1.2-2.2,1.7
		c-0.9,0.6-2,1.4-3,2.1c0,0,0,0,0,0c-0.7,0.4-1.5,0.8-2.2,1.1c0,0,0,0,0,0c0,0,0,0,0,0c-0.7,0.4-1.5,0.6-2.3,0.8c0,0,0,0,0,0
		c-1.2,0.3-2.5,0.4-3.6,0.7c-0.9,0.1-1.8,0.3-2.8,0.3C24.2,25.1,24.1,26,23.9,26.9z M24.5,27c0-0.1,0-0.1,0-0.2
		c1.4,1.2,2.9,2.3,4.3,3.6c-0.6,0.2-1.1,0.4-1.7,0.7c-0.9-0.9-2-1.7-2.9-2.5C24.3,28,24.4,27.5,24.5,27z M24.1,29.1
		c0.8,0.7,1.7,1.4,2.5,2.1c-0.5,0.2-1,0.4-1.4,0.6c-0.4-0.5-1-0.8-1.3-1.4c0,0,0,0,0,0C23.9,30,24,29.5,24.1,29.1z M23.6,31.1
		c0.3,0.4,0.7,0.7,1,1c-0.5,0.2-1,0.4-1.5,0.7C23.3,32.2,23.4,31.6,23.6,31.1z M23.4,34.9c-0.5,0-0.9,0-1.4,0c0.3-0.5,0.6-1,0.9-1.5
		C23,33.9,23.2,34.4,23.4,34.9z M21.6,35.5C21.7,35.5,21.7,35.5,21.6,35.5c0.7-0.1,1.3,0,2-0.1c0.2,0.5,0.4,1,0.6,1.4
		c-1.1,0-2.2-0.2-3.3-0.2C21.2,36.2,21.4,35.9,21.6,35.5z M19.8,38.4c0.3-0.4,0.6-0.8,0.8-1.3c1.3,0,2.6,0.2,3.8,0.3
		c0.2,0.6,0.5,1.1,0.7,1.7c-1.8,0-3.7-0.3-5.5-0.5C19.7,38.5,19.7,38.5,19.8,38.4z M19.3,41.5c-0.3-0.4-0.6-0.8-0.9-1.2
		c0.3-0.4,0.6-0.8,0.9-1.2c2,0.2,4.1,0.5,6.1,0.5c0,0,0.1,0,0.1,0c0.1,0.2,0.2,0.4,0.3,0.7c-0.1,0.2-0.2,0.4-0.3,0.7
		c0,0-0.1,0-0.1,0C23.3,40.9,21.3,41.3,19.3,41.5z M19.8,42.2c0-0.1-0.1-0.1-0.1-0.2c1.8-0.2,3.7-0.5,5.5-0.5
		c-0.2,0.6-0.5,1.1-0.7,1.7c-1.3,0-2.6,0.2-3.8,0.3C20.3,43,20.1,42.6,19.8,42.2z M21.7,45.1c-0.2-0.4-0.5-0.8-0.7-1.1
		c1.1-0.1,2.2-0.2,3.3-0.2c-0.2,0.5-0.4,0.9-0.6,1.4C23,45.1,22.3,45.2,21.7,45.1C21.7,45.1,21.7,45.1,21.7,45.1z M22,45.7
		c0.5,0,0.9,0,1.4,0c-0.2,0.5-0.4,1-0.5,1.5C22.6,46.7,22.3,46.2,22,45.7z M23.1,47.8c0.5,0.2,1,0.5,1.5,0.7c-0.3,0.3-0.7,0.6-1,1
		C23.4,48.9,23.3,48.4,23.1,47.8z M23.8,50.2C23.8,50.2,23.8,50.2,23.8,50.2c0.4-0.6,0.9-1,1.3-1.4c0.5,0.2,1,0.4,1.4,0.6
		c-0.8,0.7-1.7,1.4-2.5,2.1C24,51,23.9,50.6,23.8,50.2z M24.5,53.6c-0.1-0.5-0.2-1-0.3-1.5c0.9-0.9,2-1.6,2.9-2.5
		c0.6,0.2,1.1,0.4,1.7,0.7c-1.3,1.3-2.8,2.4-4.3,3.6C24.5,53.7,24.5,53.6,24.5,53.6z M24.8,55.9c0-0.5-0.1-1-0.2-1.5
		c1.5-1.3,3.2-2.5,4.7-3.9c0,0,0-0.1,0.1-0.1c0.2,0.1,0.4,0.2,0.7,0.3c0.1,0.2,0.2,0.4,0.3,0.7c0,0-0.1,0-0.1,0.1
		c-1.4,1.4-2.6,3.1-3.9,4.7C25.8,56,25.3,56,24.8,55.9z M27.2,56.2c-0.1,0-0.1,0-0.2,0c1.2-1.4,2.3-2.9,3.6-4.3
		c0.2,0.6,0.4,1.1,0.7,1.7c-0.9,0.9-1.7,2-2.5,2.9C28.2,56.4,27.7,56.3,27.2,56.2z M30.6,56.9C30.6,56.9,30.6,57,30.6,56.9
		c-0.5-0.1-0.9-0.2-1.3-0.3c0.7-0.8,1.4-1.7,2.1-2.5c0.2,0.5,0.4,1,0.6,1.4C31.5,56.1,31.1,56.6,30.6,56.9z M31.2,57.1
		c0.4-0.3,0.7-0.7,1-1c0.2,0.5,0.4,1,0.7,1.5C32.4,57.5,31.8,57.3,31.2,57.1z M33.5,57.9c0.5-0.2,1-0.3,1.5-0.5c0,0.5,0,0.9,0,1.4
		C34.6,58.4,34.1,58.1,33.5,57.9z M35.7,59.1C35.7,59.1,35.7,59,35.7,59.1c-0.1-0.7,0-1.3-0.1-2c0.5-0.2,1-0.4,1.4-0.6
		c0,1.1-0.2,2.2-0.2,3.3C36.4,59.5,36,59.3,35.7,59.1z M38.6,60.9c-0.4-0.3-0.8-0.6-1.3-0.8c0-1.3,0.2-2.6,0.3-3.8
		c0.6-0.2,1.1-0.5,1.7-0.7c0,1.8-0.3,3.7-0.5,5.5C38.7,61,38.7,61,38.6,60.9z M40.5,62.4c-0.4-0.3-0.8-0.6-1.2-0.9
		c0.2-2,0.5-4.1,0.5-6.1c0,0,0-0.1,0-0.1c0.2-0.1,0.4-0.2,0.7-0.3c0.2,0.1,0.4,0.2,0.7,0.3c0,0,0,0.1,0,0.1c0,2,0.4,4.1,0.5,6.1
		C41.3,61.8,40.9,62.1,40.5,62.4z M42.3,60.9c-0.1,0-0.1,0.1-0.2,0.1c-0.2-1.8-0.5-3.7-0.5-5.5c0.6,0.2,1.1,0.5,1.7,0.7
		c0,1.3,0.2,2.6,0.3,3.8C43.2,60.4,42.8,60.6,42.3,60.9z M44.1,59.8c-0.1-1.1-0.2-2.2-0.2-3.3c0.5,0.2,0.9,0.4,1.4,0.6
		c0,0.6,0.1,1.3-0.1,1.9c0,0,0,0,0,0.1C44.9,59.3,44.5,59.5,44.1,59.8z M45.9,58.7c0-0.5,0-0.9,0-1.4c0.5,0.2,1,0.4,1.5,0.5
		C46.9,58.1,46.4,58.4,45.9,58.7z M48,57.6c0.2-0.5,0.5-1,0.7-1.5c0.3,0.3,0.6,0.7,1,1C49.1,57.3,48.6,57.4,48,57.6z M50.4,57
		C50.4,56.9,50.3,56.9,50.4,57c-0.6-0.4-1-0.9-1.4-1.3c0.2-0.5,0.4-1,0.6-1.4c0.7,0.8,1.4,1.7,2.1,2.5C51.2,56.7,50.8,56.8,50.4,57z
		 M53.8,56.2c-0.5,0.1-1,0.2-1.5,0.3c-0.9-0.9-1.6-2-2.5-2.9c0.2-0.6,0.4-1.1,0.7-1.7c1.3,1.3,2.4,2.8,3.6,4.3
		C53.9,56.2,53.8,56.2,53.8,56.2z M56.1,55.9c-0.5,0-1,0.1-1.5,0.2c-1.3-1.5-2.5-3.2-3.9-4.7c0,0-0.1,0-0.1-0.1
		c0.1-0.2,0.2-0.4,0.3-0.7c0.2-0.1,0.4-0.2,0.7-0.3c0,0,0,0.1,0.1,0.1c1.4,1.4,3.1,2.6,4.7,3.9C56.2,54.9,56.2,55.4,56.1,55.9z
		 M56.4,53.5c0,0.1,0,0.1,0,0.2c-1.4-1.2-2.9-2.3-4.3-3.6c0.6-0.2,1.1-0.4,1.7-0.7c0.9,0.9,2,1.7,2.9,2.5
		C56.6,52.6,56.5,53,56.4,53.5z M56.8,51.4c-0.8-0.7-1.7-1.4-2.5-2.1c0.5-0.2,1-0.4,1.4-0.6c0.4,0.5,1,0.8,1.3,1.4c0,0,0,0,0,0
		C57,50.6,56.9,51,56.8,51.4z M57.3,49.5c-0.3-0.4-0.7-0.7-1-1c0.5-0.2,1-0.4,1.5-0.7C57.6,48.4,57.5,48.9,57.3,49.5z M57.5,45.7
		c0.5,0,0.9,0,1.4,0c-0.3,0.5-0.6,1-0.9,1.5C57.9,46.7,57.7,46.2,57.5,45.7z M59.3,45.1C59.2,45.1,59.2,45,59.3,45.1
		c-0.7,0.1-1.3,0-2,0.1c-0.2-0.5-0.4-1-0.6-1.4c1.1,0,2.2,0.2,3.3,0.2C59.7,44.3,59.5,44.7,59.3,45.1z M61.1,42.1
		c-0.3,0.4-0.6,0.8-0.8,1.3c-1.3,0-2.6-0.2-3.8-0.3c-0.2-0.6-0.5-1.1-0.7-1.7c1.8,0,3.7,0.3,5.5,0.5C61.2,42,61.2,42.1,61.1,42.1z
		 M61.6,39.1c0.3,0.4,0.6,0.8,0.9,1.2c-0.3,0.4-0.6,0.8-0.9,1.2c-2-0.2-4.1-0.5-6.1-0.5c0,0-0.1,0-0.1,0c-0.1-0.2-0.2-0.4-0.3-0.7
		c0.1-0.2,0.2-0.4,0.3-0.7c0,0,0.1,0,0.1,0C57.6,39.6,59.6,39.2,61.6,39.1z M61.1,38.4c0,0.1,0.1,0.1,0.1,0.2
		c-1.8,0.2-3.7,0.5-5.5,0.5c0.2-0.6,0.5-1.1,0.7-1.7c1.3,0,2.6-0.2,3.8-0.3C60.6,37.5,60.8,38,61.1,38.4z M59.3,35.4
		c0.2,0.4,0.5,0.8,0.7,1.1c-1.1,0.1-2.2,0.2-3.3,0.2c0.2-0.5,0.4-0.9,0.6-1.4C57.9,35.4,58.6,35.3,59.3,35.4
		C59.2,35.4,59.2,35.4,59.3,35.4z M58.9,34.8c-0.5,0-0.9,0-1.4,0c0.2-0.5,0.4-1,0.5-1.5C58.3,33.8,58.6,34.3,58.9,34.8z M57.8,32.7
		c-0.5-0.2-1-0.5-1.5-0.7c0.3-0.3,0.7-0.6,1-1C57.5,31.6,57.6,32.1,57.8,32.7z M57.1,30.3C57.1,30.4,57.1,30.4,57.1,30.3
		c-0.4,0.6-0.9,1-1.3,1.4c-0.5-0.2-1-0.4-1.4-0.6c0.8-0.7,1.7-1.4,2.5-2.1C56.9,29.5,57,29.9,57.1,30.3z M56.4,26.9
		c0.1,0.5,0.2,1,0.3,1.5c-0.9,0.9-2,1.6-2.9,2.5c-0.6-0.2-1.1-0.4-1.7-0.7c1.3-1.3,2.8-2.4,4.3-3.6C56.4,26.8,56.4,26.9,56.4,26.9z
		 M56.1,24.6c0,0.5,0.1,1,0.2,1.5c-1.5,1.3-3.2,2.5-4.7,3.9c0,0,0,0.1-0.1,0.1c-0.2-0.1-0.4-0.2-0.7-0.3c-0.1-0.2-0.2-0.4-0.3-0.7
		c0,0,0.1,0,0.1-0.1c1.4-1.4,2.6-3.1,3.9-4.7C55.1,24.5,55.6,24.6,56.1,24.6z M53.7,24.3c0.1,0,0.1,0,0.2,0
		c-1.2,1.4-2.3,2.9-3.6,4.3c-0.2-0.6-0.4-1.1-0.7-1.7c0.9-0.9,1.7-2,2.5-2.9C52.7,24.1,53.2,24.2,53.7,24.3z M50.3,23.6
		C50.3,23.6,50.3,23.6,50.3,23.6c0.5,0.1,0.9,0.2,1.3,0.3c-0.7,0.8-1.4,1.7-2.1,2.5c-0.2-0.5-0.4-1-0.6-1.4
		C49.4,24.5,49.8,23.9,50.3,23.6z M49.7,23.4c-0.4,0.3-0.7,0.7-1,1c-0.2-0.5-0.4-1-0.7-1.5C48.5,23.1,49.1,23.2,49.7,23.4z
		 M47.4,22.7c-0.5,0.2-1,0.3-1.5,0.5c0-0.5,0-0.9,0-1.4C46.3,22.1,46.9,22.4,47.4,22.7z M45.2,21.5C45.2,21.5,45.2,21.5,45.2,21.5
		c0.1,0.7,0,1.3,0.1,2c-0.5,0.2-1,0.4-1.4,0.6c0-1.1,0.2-2.2,0.2-3.3C44.5,21,44.9,21.2,45.2,21.5z M42.3,19.6
		c0.4,0.3,0.8,0.6,1.3,0.8c0,1.3-0.2,2.6-0.3,3.8c-0.6,0.2-1.1,0.5-1.7,0.7c0-1.8,0.3-3.7,0.5-5.5C42.2,19.5,42.2,19.5,42.3,19.6z
		 M40.4,18.1c0.4,0.3,0.8,0.6,1.2,0.9c-0.2,2-0.5,4.1-0.5,6.1c0,0,0,0.1,0,0.1c-0.2,0.1-0.4,0.2-0.7,0.3c-0.2-0.1-0.4-0.2-0.7-0.3
		c0,0,0-0.1,0-0.1c0-2-0.4-4.1-0.5-6.1C39.6,18.8,40,18.5,40.4,18.1z M38.6,19.6c0.1,0,0.1-0.1,0.2-0.1c0.2,1.8,0.5,3.7,0.5,5.5
		c-0.6-0.2-1.1-0.5-1.7-0.7c0-1.3-0.2-2.6-0.3-3.8C37.7,20.2,38.1,19.9,38.6,19.6z M36.8,20.8c0.1,1.1,0.2,2.2,0.2,3.3
		c-0.5-0.2-0.9-0.4-1.4-0.6c0-0.6-0.1-1.3,0.1-1.9c0,0,0,0,0-0.1C36,21.2,36.4,21,36.8,20.8z M35,21.8c0,0.5,0,0.9,0,1.4
		c-0.5-0.2-1-0.4-1.5-0.5C34,22.4,34.5,22.1,35,21.8z M30.5,30.3c0.9-2.1,1.7-4.3,2.6-6.5c0.1-0.1,0.2-0.2,0.5-0.2
		c0.2-0.2,0.3-0.3,0.5-0.2c2.2,0.9,4.3,1.9,6.4,2.7c2.2-0.9,4.2-1.9,6.4-2.7c0.1-0.1,0.3,0,0.5,0.2c0.3,0,0.4,0.1,0.5,0.2
		c0.9,2.2,1.7,4.3,2.6,6.5c2.1,0.9,4.3,1.7,6.5,2.6c0.1,0.1,0.2,0.2,0.2,0.5c0.2,0.2,0.3,0.3,0.2,0.5c-0.9,2.2-1.9,4.3-2.7,6.4
		c0.9,2.2,1.9,4.2,2.7,6.4c0.1,0.1,0,0.3-0.2,0.5c0,0.3-0.1,0.4-0.2,0.5c-2.2,0.9-4.3,1.7-6.5,2.6c-0.9,2.1-1.7,4.3-2.6,6.5
		c-0.1,0.1-0.2,0.2-0.5,0.2c-0.2,0.2-0.3,0.3-0.5,0.2c-2.2-0.9-4.3-1.9-6.4-2.7c-2.2,0.9-4.2,1.9-6.4,2.7c-0.1,0.1-0.3,0-0.5-0.2
		c-0.3,0-0.4-0.1-0.5-0.2c-0.9-2.2-1.7-4.3-2.6-6.5c-2.1-0.9-4.3-1.7-6.5-2.6c-0.1-0.1-0.2-0.2-0.2-0.5c-0.2-0.2-0.3-0.3-0.2-0.5
		c0.9-2.2,1.9-4.3,2.7-6.4c-0.9-2.2-1.9-4.2-2.7-6.4c-0.1-0.1,0-0.3,0.2-0.5c0-0.3,0.1-0.4,0.2-0.5C26.1,32,28.3,31.2,30.5,30.3z
		 M32.9,22.9c-0.2,0.5-0.5,1-0.7,1.5c-0.3-0.3-0.6-0.7-1-1C31.8,23.2,32.3,23.1,32.9,22.9z M30.5,23.6
		C30.5,23.6,30.6,23.6,30.5,23.6c0.6,0.4,1,0.9,1.4,1.3c-0.2,0.5-0.4,1-0.6,1.4c-0.7-0.8-1.4-1.7-2.1-2.5
		C29.7,23.8,30.1,23.7,30.5,23.6z M27.1,24.3c0.5-0.1,1-0.2,1.5-0.3c0.9,0.9,1.6,2,2.5,2.9c-0.2,0.6-0.4,1.1-0.7,1.7
		c-1.3-1.3-2.4-2.8-3.6-4.3C27,24.4,27.1,24.4,27.1,24.3z M30.2,29.1C30.2,29.2,30.3,29.2,30.2,29.1c0,0.3-0.1,0.5-0.2,0.7
		c-0.2,0.1-0.4,0.2-0.7,0.3c0,0,0-0.1-0.1-0.1c-1.4-1.4-3.1-2.6-4.7-3.9c0.1-0.5,0.1-1,0.2-1.5c0.5,0,1-0.1,1.5-0.2
		C27.6,26,28.8,27.7,30.2,29.1z"/>
	<path class="st0" d="M66.4,64.9c-0.5-0.5-1-0.5-1.4-0.1c-0.3,0.4-0.4,0.9,0.1,1.4c0.4,0.4,1.1,0.5,1.6,0.4c0,0,0,0,0,0c0,0,0,0,0,0
		C66.9,66,66.9,65.4,66.4,64.9z M66.3,66.2c-0.6,0-1.4-0.4-1-1.1c0.7-0.3,1.1,0.4,1.1,1c0,0,0,0.1,0,0.1
		C66.4,66.2,66.4,66.2,66.3,66.2z"/>
	<path class="st0" d="M40.5,77.5C40.5,77.5,40.5,77.6,40.5,77.5C40.5,77.6,40.5,77.5,40.5,77.5c0.5-0.4,0.9-0.9,0.9-1.5
		c0-0.7-0.4-1-0.9-1.1c-0.5,0-0.9,0.3-0.9,1.1C39.6,76.7,40,77.2,40.5,77.5z M40.5,75.4c0.7,0.3,0.5,1.1,0.1,1.5c0,0,0,0-0.1,0.1
		c0,0,0,0-0.1-0.1C40,76.5,39.8,75.7,40.5,75.4z"/>
	<path class="st0" d="M76.3,39.3c-0.7,0-1,0.4-1.1,0.9c0,0.5,0.3,0.9,1.1,0.9c0.6,0,1.1-0.4,1.5-0.9c0,0,0,0,0,0c0,0,0,0,0,0
		C77.3,39.8,76.9,39.4,76.3,39.3z M77.1,40.3c-0.4,0.4-1.3,0.7-1.5-0.1c0.3-0.7,1.1-0.5,1.5-0.1C77.1,40.2,77.2,40.2,77.1,40.3
		C77.2,40.3,77.1,40.3,77.1,40.3z"/>
	<path class="st0" d="M26.6,37.4c0.4,0.9,1.1,1.9,1.6,2.9c-0.4,1-1.2,2-1.6,2.9c-0.5,1-0.8,2.1-1.3,3.1c0,0.1,0,0.1,0,0.2
		c0,0.1,0.1,0.1,0.2,0.2c1.1,0.4,2.1,0.9,3.1,1.3c0.9,0.4,2.2,0.5,3.2,1c0.4,1,0.6,2.2,1,3.2c0.4,1.1,0.9,2.1,1.3,3.1
		c0,0.1,0.1,0.1,0.2,0.2c0.1,0,0.1,0,0.2,0c1-0.5,2.1-0.8,3.1-1.3c0.9-0.4,1.9-1.1,2.9-1.6c1,0.4,2,1.2,2.9,1.6
		c1,0.5,2.1,0.8,3.1,1.3c0.1,0,0.1,0,0.2,0c0.1,0,0.1-0.1,0.2-0.2c0.4-1.1,0.9-2.1,1.3-3.1c0.4-0.9,0.5-2.2,1-3.2
		c1-0.4,2.2-0.6,3.2-1c1.1-0.4,2.1-0.9,3.1-1.3c0.1,0,0.1-0.1,0.2-0.2c0-0.1,0-0.1,0-0.2c-0.5-1-0.8-2.1-1.3-3.1
		c-0.4-0.9-1.1-1.9-1.6-2.9c0.4-1,1.2-2,1.6-2.9c0.5-1,0.8-2.1,1.3-3.1c0-0.1,0-0.1,0-0.2c0-0.1-0.1-0.1-0.2-0.2
		c-1.1-0.4-2.1-0.9-3.1-1.3c-0.9-0.4-2.2-0.5-3.2-1c-0.4-1-0.6-2.2-1-3.2c-0.4-1.1-0.9-2.1-1.3-3.1c0-0.1-0.1-0.1-0.2-0.2
		c-0.1,0-0.1,0-0.2,0c-1,0.5-2.1,0.8-3.1,1.3c-0.9,0.4-1.9,1.1-2.9,1.6c-1-0.4-2-1.2-2.9-1.6c-1-0.5-2.1-0.8-3.1-1.3
		c-0.1,0-0.1,0-0.2,0c-0.1,0-0.1,0.1-0.2,0.2c-0.4,1.1-0.9,2.1-1.3,3.1c-0.4,0.9-0.5,2.2-1,3.2c-1,0.4-2.2,0.6-3.2,1
		c-1.1,0.4-2.1,0.9-3.1,1.3c-0.1,0-0.1,0.1-0.2,0.2c0,0.1,0,0.1,0,0.2C25.8,35.2,26.1,36.3,26.6,37.4z M26.2,34.2
		c1.3-0.7,2.7-1.2,4.1-1.6c0.6-0.2,1.3-0.3,1.9-0.6c0.2-0.6,0.4-1.3,0.6-1.9c0.5-1.4,1-2.8,1.6-4.1c0-0.1,0.1-0.1,0.2-0.1
		c0.1,0,0.1,0,0.2,0c1.4,0.4,2.7,1.1,4,1.7c0.6,0.3,1.1,0.7,1.7,0.9c0.6-0.3,1.2-0.6,1.7-0.9c1.3-0.7,2.6-1.3,4-1.7
		c0.1,0,0.1,0,0.2,0c0.1,0,0.1,0.1,0.2,0.1c0.7,1.3,1.2,2.7,1.6,4.1c0.2,0.6,0.3,1.3,0.6,1.9c0.6,0.2,1.3,0.4,1.9,0.6
		c1.4,0.5,2.8,1,4.1,1.6c0.1,0,0.1,0.1,0.1,0.2c0,0.1,0,0.1,0,0.2c-0.4,1.4-1.1,2.7-1.7,4c-0.3,0.6-0.7,1.1-0.9,1.7
		c0.3,0.6,0.6,1.2,0.9,1.7c0.7,1.3,1.3,2.6,1.7,4c0,0.1,0,0.1,0,0.2c0,0.1-0.1,0.1-0.1,0.2c-1.3,0.7-2.7,1.2-4.1,1.6
		c-0.6,0.2-1.3,0.3-1.9,0.6c-0.2,0.6-0.4,1.3-0.6,1.9c-0.5,1.4-1,2.8-1.6,4.1c0,0.1-0.1,0.1-0.2,0.1c-0.1,0-0.1,0-0.2,0
		c-1.4-0.4-2.7-1.1-4-1.7c-0.6-0.3-1.1-0.7-1.7-0.9c-0.6,0.3-1.2,0.6-1.7,0.9c-1.3,0.7-2.6,1.3-4,1.7c-0.1,0-0.1,0-0.2,0
		c-0.1,0-0.1-0.1-0.2-0.1c-0.7-1.3-1.2-2.7-1.6-4.1c-0.2-0.6-0.3-1.3-0.6-1.9c-0.6-0.2-1.3-0.4-1.9-0.6c-1.4-0.5-2.8-1-4.1-1.6
		c-0.1,0-0.1-0.1-0.1-0.2c0-0.1,0-0.1,0-0.2c0.4-1.4,1.1-2.7,1.7-4c0.3-0.6,0.7-1.1,0.9-1.7c-0.3-0.6-0.6-1.2-0.9-1.7
		c-0.7-1.3-1.3-2.6-1.7-4c0-0.1,0-0.1,0-0.2C26.1,34.2,26.1,34.2,26.2,34.2z"/>
	<path class="st0" d="M21.6,48.1L21.6,48.1c-0.3-0.8-1.2-1.2-1.9-0.8c-0.7,0.3-0.7,1.2-0.5,1.8c0,0,0,0,0,0c0,0,0,0,0,0
		c0.2,0.6,0.9,1.2,1.6,0.9C21.6,49.7,22,48.8,21.6,48.1L21.6,48.1z M20.7,49.5c-0.5,0.2-0.8-0.2-1-0.6c0,0,0,0,0,0c0,0,0,0,0,0
		c-0.1-0.4-0.2-0.9,0.3-1.1c0.5-0.2,1,0,1.1,0.5c0,0,0,0,0,0l0,0C21.4,48.8,21.2,49.2,20.7,49.5z"/>
	<path class="st0" d="M48.3,59.1L48.3,59.1L48.3,59.1c-0.8,0.3-1.2,1.2-0.8,1.9c0.3,0.7,1.2,0.7,1.8,0.5c0,0,0,0,0,0c0,0,0,0,0,0
		c0.6-0.2,1.2-0.9,0.9-1.6C49.9,59.1,49,58.7,48.3,59.1z M49.1,61C49.1,61,49.1,61,49.1,61C49.1,61,49.1,61,49.1,61
		c-0.4,0.1-0.9,0.2-1.1-0.3c-0.2-0.5,0-1,0.5-1.1c0,0,0,0,0,0c0,0,0,0,0,0c0.5-0.2,0.9-0.1,1.2,0.4C49.9,60.5,49.4,60.8,49.1,61z"/>
	<path class="st0" d="M32.7,59.1C32.7,59.1,32.7,59.1,32.7,59.1C32.7,59.1,32.7,59.1,32.7,59.1c-0.8-0.4-1.7,0-1.9,0.8
		c-0.2,0.7,0.3,1.4,0.9,1.6c0,0,0,0,0,0c0,0,0,0,0,0c0.6,0.3,1.5,0.2,1.8-0.5C33.8,60.3,33.5,59.4,32.7,59.1z M31.9,61
		C31.9,61,31.9,61,31.9,61C31.9,61,31.9,61,31.9,61c-0.4-0.2-0.8-0.5-0.6-1c0.2-0.5,0.7-0.6,1.2-0.4c0,0,0,0,0,0c0,0,0,0,0,0
		c0.5,0.1,0.7,0.6,0.5,1.1C32.8,61.2,32.3,61.1,31.9,61z"/>
	<path class="st0" d="M61.7,49C61.7,49,61.7,49,61.7,49C61.7,49,61.7,49,61.7,49c0.3-0.6,0.2-1.5-0.5-1.8c-0.8-0.4-1.7,0-1.9,0.8
		c0,0,0,0,0,0c0,0,0,0,0,0c-0.4,0.8,0,1.7,0.8,1.9C60.8,50.2,61.5,49.7,61.7,49z M61.2,48.8c-0.2,0.4-0.5,0.8-1,0.6
		c-0.5-0.2-0.6-0.7-0.4-1.2c0,0,0,0,0,0c0,0,0,0,0,0c0.1-0.5,0.6-0.7,1.1-0.5C61.4,47.9,61.3,48.5,61.2,48.8
		C61.2,48.8,61.2,48.8,61.2,48.8C61.2,48.8,61.2,48.8,61.2,48.8z"/>
	<path class="st0" d="M59.3,32.4L59.3,32.4c0.3,0.8,1.2,1.2,1.9,0.8c0.7-0.3,0.7-1.2,0.5-1.8c0,0,0,0,0,0c0,0,0,0,0,0
		c-0.2-0.6-0.9-1.2-1.6-0.9C59.3,30.8,58.9,31.7,59.3,32.4L59.3,32.4z M60.2,31.1c0.5-0.2,0.8,0.2,1,0.6c0,0,0,0,0,0c0,0,0,0,0,0
		c0.1,0.4,0.2,0.9-0.3,1.1c-0.5,0.2-1,0-1.1-0.5l0,0c0,0,0,0,0,0C59.5,31.8,59.7,31.3,60.2,31.1z"/>
	<path class="st0" d="M19.7,33.3c0.8,0.4,1.7,0,1.9-0.8c0,0,0,0,0,0c0,0,0,0,0,0c0.4-0.8,0-1.7-0.8-1.9c-0.7-0.2-1.4,0.3-1.6,0.9
		c0,0,0,0,0,0c0,0,0,0,0,0C18.9,32.1,19,32.9,19.7,33.3z M19.7,31.7C19.7,31.7,19.7,31.7,19.7,31.7c0.2-0.4,0.5-0.8,1-0.6
		c0.5,0.2,0.6,0.7,0.4,1.2c0,0,0,0,0,0c0,0,0,0,0,0C21,32.8,20.5,33,20,32.8C19.5,32.6,19.6,32.1,19.7,31.7
		C19.7,31.7,19.7,31.7,19.7,31.7z"/>
	<path class="st0" d="M48.2,21.4C48.2,21.4,48.2,21.4,48.2,21.4C48.2,21.4,48.2,21.4,48.2,21.4c0.8,0.4,1.7,0,1.9-0.8
		c0.2-0.7-0.3-1.4-0.9-1.6c0,0,0,0,0,0c0,0,0,0,0,0c-0.6-0.3-1.5-0.2-1.8,0.5C47.1,20.2,47.4,21.2,48.2,21.4z M49,19.5
		C49,19.5,49,19.5,49,19.5C49,19.5,49,19.5,49,19.5c0.4,0.2,0.8,0.5,0.6,1c-0.2,0.5-0.7,0.6-1.2,0.4c0,0,0,0,0,0c0,0,0,0,0,0
		c-0.5-0.1-0.7-0.6-0.5-1.1C48.1,19.3,48.6,19.4,49,19.5z"/>
	<path class="st0" d="M32.6,21.4L32.6,21.4L32.6,21.4c0.8-0.3,1.2-1.2,0.8-1.9c-0.3-0.7-1.2-0.7-1.8-0.5c0,0,0,0,0,0c0,0,0,0,0,0
		c-0.6,0.2-1.2,0.9-0.9,1.6C31,21.4,31.9,21.9,32.6,21.4z M31.8,19.6C31.8,19.6,31.8,19.6,31.8,19.6C31.8,19.5,31.8,19.5,31.8,19.6
		c0.4-0.1,0.9-0.2,1.1,0.3c0.2,0.5,0,1-0.5,1.1l0,0l0,0c-0.5,0.2-0.9,0.1-1.2-0.4C31,20.1,31.5,19.7,31.8,19.6z"/>
	<path class="st0" d="M42.7,17.7c0.7,0.4,1.5-0.2,1.7-0.9c0.2-0.6-0.1-1.3-0.7-1.5c-0.6-0.3-1.3,0-1.6,0.6
		C41.8,16.5,41.9,17.5,42.7,17.7z M42.6,16.1c0.2-0.3,0.5-0.4,0.8-0.2c0.9,0.3,0.2,1.8-0.6,1.4C42.4,17.1,42.4,16.4,42.6,16.1z"/>
	<path class="st0" d="M26.1,22.7c0.8-0.2,0.9-1.2,0.6-1.8c-0.3-0.6-1-0.8-1.6-0.6c-0.6,0.2-0.9,0.9-0.7,1.5
		C24.6,22.5,25.4,23.2,26.1,22.7z M25.3,20.9c0.9-0.4,1.4,1.1,0.6,1.4c-0.5,0.3-0.9-0.2-1-0.6C24.8,21.3,25,21,25.3,20.9z"/>
	<path class="st0" d="M16.1,38.6c0.6,0.3,1.6,0.2,1.8-0.6c0.4-0.7-0.2-1.5-0.9-1.7c-0.6-0.2-1.3,0.1-1.5,0.7
		C15.2,37.6,15.5,38.4,16.1,38.6z M17.4,37.8c-0.1,0.5-0.8,0.5-1.1,0.3c-0.3-0.2-0.4-0.5-0.2-0.8C16.4,36.4,17.8,37.1,17.4,37.8z"/>
	<path class="st0" d="M21.1,54c-0.6,0.3-0.8,1-0.6,1.6c0.2,0.6,0.9,0.9,1.5,0.7c0.7-0.2,1.3-1,0.9-1.7C22.7,53.8,21.7,53.7,21.1,54z
		 M21.8,55.9c-0.4,0.1-0.6-0.1-0.8-0.4c-0.4-0.9,1.1-1.4,1.4-0.6C22.7,55.3,22.2,55.7,21.8,55.9z"/>
	<path class="st0" d="M38.2,62.8c-0.7-0.4-1.5,0.2-1.7,0.9c-0.2,0.6,0.1,1.3,0.7,1.5c0.6,0.3,1.3,0,1.6-0.6C39.1,64,39,63,38.2,62.8
		z M38.3,64.5c-0.2,0.3-0.5,0.4-0.8,0.2c-0.9-0.3-0.2-1.8,0.6-1.4C38.5,63.5,38.5,64.1,38.3,64.5z"/>
	<path class="st0" d="M54.8,57.8C54,58,53.9,59,54.2,59.6c0.3,0.6,1,0.8,1.6,0.6c0.6-0.2,0.9-0.9,0.7-1.5
		C56.3,58,55.5,57.4,54.8,57.8z M55.6,59.7c-0.9,0.4-1.4-1.1-0.6-1.4c0.5-0.3,0.9,0.2,1,0.6C56.1,59.3,55.9,59.5,55.6,59.7z"/>
	<path class="st0" d="M63,42.5c-0.4,0.7,0.2,1.5,0.9,1.7c0.6,0.2,1.3-0.1,1.5-0.7c0.3-0.6,0-1.3-0.6-1.6
		C64.2,41.6,63.2,41.7,63,42.5z M64.7,42.4c0.3,0.2,0.4,0.5,0.2,0.8c-0.3,0.9-1.8,0.2-1.4-0.6C63.7,42.2,64.3,42.2,64.7,42.4z"/>
	<path class="st0" d="M59.8,26.5c0.6-0.3,0.8-1,0.6-1.6c-0.2-0.6-0.9-0.9-1.5-0.7c-0.7,0.2-1.3,1-0.9,1.7
		C58.2,26.7,59.2,26.8,59.8,26.5z M59.1,24.7c0.4-0.1,0.6,0.1,0.8,0.4c0.4,0.9-1.1,1.4-1.4,0.6C58.2,25.2,58.7,24.8,59.1,24.7z"/>
	<path class="st0" d="M54.8,22.7c0.7,0.4,1.5-0.2,1.7-0.9c0.2-0.6-0.1-1.3-0.7-1.5c-0.6-0.2-1.3,0-1.6,0.6
		C53.9,21.5,54,22.5,54.8,22.7z M55.6,20.8c0.3,0.1,0.5,0.4,0.4,0.8c-0.1,0.4-0.5,0.9-1,0.6C54.1,22,54.7,20.4,55.6,20.8z"/>
	<path class="st0" d="M38.2,17.7c0.8-0.2,0.9-1.2,0.6-1.8c-0.3-0.6-1-0.8-1.6-0.6c-0.6,0.3-1,0.9-0.7,1.5
		C36.7,17.5,37.5,18.1,38.2,17.7z M37.4,15.8c0.3-0.1,0.7-0.1,0.8,0.2c0.2,0.4,0.2,1-0.3,1.1C37.2,17.6,36.5,16.2,37.4,15.8z"/>
	<path class="st0" d="M21.1,26.5c0.6,0.3,1.6,0.2,1.8-0.6c0.4-0.7-0.2-1.5-0.9-1.7c-0.6-0.2-1.3,0.1-1.5,0.7
		C20.3,25.5,20.5,26.2,21.1,26.5z M21.8,24.7c0.4,0.1,0.9,0.5,0.6,1c-0.2,0.9-1.8,0.3-1.4-0.6C21.2,24.8,21.4,24.6,21.8,24.7z"/>
	<path class="st0" d="M16.1,41.9c-0.6,0.3-0.8,1-0.6,1.6c0.3,0.6,0.9,1,1.5,0.7c0.7-0.2,1.3-1,0.9-1.7
		C17.7,41.7,16.7,41.6,16.1,41.9z M16,43.3c-0.1-0.3-0.1-0.7,0.2-0.8c0.4-0.2,1-0.2,1.1,0.3C17.8,43.5,16.4,44.2,16,43.3z"/>
	<path class="st0" d="M26.1,57.8c-0.7-0.4-1.5,0.2-1.7,0.9c-0.2,0.6,0.1,1.3,0.7,1.5c0.6,0.2,1.3,0,1.6-0.6C27,59,26.9,58,26.1,57.8
		z M25.3,59.7c-0.3-0.1-0.5-0.4-0.4-0.8c0.1-0.4,0.5-0.9,1-0.6C26.8,58.6,26.2,60.1,25.3,59.7z"/>
	<path class="st0" d="M42.7,62.8c-0.8,0.2-0.9,1.2-0.6,1.8c0.3,0.6,1,0.8,1.6,0.6c0.6-0.3,1-0.9,0.7-1.5
		C44.2,63,43.4,62.4,42.7,62.8z M43.5,64.7c-0.3,0.1-0.7,0.1-0.8-0.2c-0.2-0.4-0.2-1,0.3-1.1C43.7,62.9,44.4,64.4,43.5,64.7z"/>
	<path class="st0" d="M59.8,54c-0.6-0.3-1.6-0.2-1.8,0.6c-0.4,0.7,0.2,1.5,0.9,1.7c0.6,0.2,1.3-0.1,1.5-0.7
		C60.6,55,60.5,54.3,59.8,54z M59.1,55.8c-0.4-0.1-0.9-0.5-0.6-1c0.2-0.9,1.8-0.3,1.4,0.6C59.8,55.7,59.5,55.9,59.1,55.8z"/>
	<path class="st0" d="M64.8,38.6c0.6-0.3,0.8-1,0.6-1.6c-0.3-0.6-0.9-1-1.5-0.7c-0.7,0.2-1.3,1-0.9,1.7
		C63.2,38.8,64.2,38.9,64.8,38.6z M64.9,37.2c0.1,0.3,0.1,0.7-0.2,0.8c-0.4,0.2-1,0.2-1.1-0.3C63.1,37,64.5,36.3,64.9,37.2z"/>
	<path class="st0" d="M4,39.3c-0.7,0-1,0.4-1.1,0.9c0,0.5,0.3,0.9,1.1,0.9c0.6,0,1.1-0.4,1.5-0.9c0,0,0,0,0,0c0,0,0,0,0,0
		C5.1,39.8,4.6,39.4,4,39.3z M4.9,40.3c-0.4,0.4-1.3,0.7-1.5-0.1c0.3-0.7,1.1-0.5,1.5-0.1C4.9,40.2,4.9,40.2,4.9,40.3
		C4.9,40.3,4.9,40.3,4.9,40.3z"/>
</g>
</svg>
