<svg id="Layer_1" data-name="Layer 1" xmlns="http://www.w3.org/2000/svg" viewBox="0 0 103.86 104.04"><title>01</title><path d="M101.21,101.31a9.78,9.78,0,0,1-13.8,0h0l-17.2-17.2A45.55,45.55,0,1,1,84,70.41l17.2,17.1A9.78,9.78,0,0,1,101.21,101.31Zm-55.4-87.9a32.5,32.5,0,1,0,32.5,32.5h0a32.5,32.5,0,0,0-32.5-32.5Z" transform="translate(-0.2 -0.12)" fill="#d6d8d6"/><rect x="24.98" y="39.7" width="41.66" height="12.42" rx="6.21" transform="translate(45.68 -19.07) rotate(45)" fill="#d6d8d6"/><rect x="24.98" y="39.7" width="41.66" height="12.42" rx="6.21" transform="translate(-19.25 45.72) rotate(-45)" fill="#d6d8d6"/></svg>