<svg id="Layer_1" data-name="Layer 1" xmlns="http://www.w3.org/2000/svg" viewBox="0 0 562.64 76"><title>tazhib</title><path d="M302.9,59.19c-.81-4.34-.73-8.33-3.91-11.6a17.48,17.48,0,0,0,1.11-3.19c4.71,0,7.48-2.92,11.19-5.46a1,1,0,0,0,0-1.62c-3.77-2.58-6.55-5.6-11.39-5.47a.83.83,0,0,0-.36.08,23.64,23.64,0,0,0-1.08-2.79.92.92,0,0,0,.25-.15c3.5-3.33,3.36-7.44,4.19-11.92a1,1,0,0,0-1.16-1.15c-4.24.78-8.15.73-11.38,3.7A17.63,17.63,0,0,0,286.91,18c-.27-4.26-3-6.94-5.42-10.45a1,1,0,0,0-.81-.45,1,1,0,0,0-.81.45c-2.41,3.51-5.15,6.19-5.42,10.45A17.63,17.63,0,0,0,271,19.62c-3.23-3-7.14-2.92-11.38-3.7a1,1,0,0,0-1.16,1.15c.83,4.48.69,8.59,4.19,11.92a.92.92,0,0,0,.25.15,25.58,25.58,0,0,0-1.09,2.79.75.75,0,0,0-.35-.08c-4.84-.13-7.62,2.89-11.39,5.47a1,1,0,0,0,0,1.62c3.71,2.54,6.47,5.49,11.18,5.46a19.13,19.13,0,0,0,1.11,3.19c-3.17,3.27-3.09,7.26-3.9,11.6a1,1,0,0,0,1.16,1.15c4.4-.81,8.44-.71,11.73-4,.46.21.91.42,1.4.6h0l.06,0L273,57h0c.47.21.94.39,1.41.56,0,4.69,2.92,7.45,5.46,11.16a1,1,0,0,0,.81.45,1,1,0,0,0,.81-.45C284,65,287,62.27,287,57.58c.47-.17.94-.35,1.41-.56h0l.17-.07.05,0h0c.49-.18.94-.39,1.4-.6,3.29,3.31,7.33,3.21,11.73,4A1,1,0,0,0,302.9,59.19Zm6.32-21.06c-2.74,2-5.17,4.22-8.73,4.37a20.23,20.23,0,0,0,.22-2.2,1.23,1.23,0,0,0,.26,0,6.79,6.79,0,0,0,2.37-1.49.92.92,0,0,0,0-1.32A6.79,6.79,0,0,0,301,36a1,1,0,0,0-.48,0c-.11-.75-.26-1.5-.44-2.24C303.87,33.7,306.37,36,309.22,38.13ZM260.87,36a1,1,0,0,0-.48,0A6.7,6.7,0,0,0,258,37.47a.92.92,0,0,0,0,1.32,6.7,6.7,0,0,0,2.37,1.49,1.14,1.14,0,0,0,.26,0,20.23,20.23,0,0,0,.22,2.2c-3.57-.15-6-2.33-8.73-4.37,2.85-2.13,5.35-4.43,9.17-4.4A21.61,21.61,0,0,0,260.87,36Zm40-18c-.51,3.47-.68,6.84-3.28,9.49a22.35,22.35,0,0,0-1.19-1.94c0-.06.1-.1.14-.17a6.82,6.82,0,0,0,.63-2.74.92.92,0,0,0-.93-.94,7.18,7.18,0,0,0-2.6.57,19.79,19.79,0,0,0-1.7-1.48C294.5,18.61,297.64,18.41,300.87,17.94ZM280.68,9.59c1.87,2.51,3.88,4.75,4.32,7.85a16.35,16.35,0,0,0-2.54-.35,10,10,0,0,0-1.12-1.62.83.83,0,0,0-.66-.28.86.86,0,0,0-.67.28,9.92,9.92,0,0,0-1.11,1.62,16.18,16.18,0,0,0-2.54.35C276.8,14.34,278.8,12.1,280.68,9.59Zm-20.19,8.35c3.23.47,6.37.67,8.93,2.79a21.57,21.57,0,0,0-1.71,1.48,7.08,7.08,0,0,0-2.59-.57.92.92,0,0,0-.93.94,6.82,6.82,0,0,0,.63,2.74,1.15,1.15,0,0,0,.14.17,22.35,22.35,0,0,0-1.19,1.94C261.17,24.78,261,21.41,260.49,17.94Zm0,40.37c.47-3.24.67-6.39,2.82-9a16.7,16.7,0,0,0,1.37,1.91,7.84,7.84,0,0,0-.49,2.42.92.92,0,0,0,.93.94,7.44,7.44,0,0,0,2.5-.53,18.5,18.5,0,0,0,2,1.3C267,57.64,263.79,57.84,260.49,58.31Zm20.19,8.36c-2-2.68-4.13-5.07-4.36-8.51a18.73,18.73,0,0,0,2.29.42,7.46,7.46,0,0,0,1.4,2.21.9.9,0,0,0,.67.28.86.86,0,0,0,.66-.28,7.29,7.29,0,0,0,1.41-2.21,18.73,18.73,0,0,0,2.29-.42C284.81,61.6,282.68,64,280.68,66.67Zm7.2-11.46-.11.07-.11,0a15,15,0,0,1-14,0,.53.53,0,0,0-.12,0l-.1-.07c-10-3.68-13.32-15-9.89-24.28,2.77-7.46,9.82-11.22,17.09-11.19S295,23.47,297.76,30.93C301.2,40.21,297.83,51.53,287.88,55.21Zm3.9.18a18.5,18.5,0,0,0,2-1.3,7.44,7.44,0,0,0,2.5.53.92.92,0,0,0,.93-.94,7.84,7.84,0,0,0-.49-2.42,18,18,0,0,0,1.37-1.91c2.15,2.57,2.35,5.72,2.82,9C297.57,57.84,294.37,57.64,291.78,55.39Z" fill="#4cb050"/><path d="M296.73,32.84c-2.81-6.18-9-12.06-16.05-12-7.05-.08-13.24,5.8-16.05,12-3.6,7.88,2,17.79,9.49,20.76h0l.08,0,.14.06h0a15,15,0,0,0,12.6,0h0l.14-.06.08,0h0C294.74,50.63,300.33,40.72,296.73,32.84Zm-1.26,4.32h-5.56a11.49,11.49,0,0,0-.3-1.44l2.84-1.13c.82-.32,1.58-.76,2.38-1.1A17.22,17.22,0,0,1,295.47,37.16ZM294,31.37c-.72.3-1.49.47-2.2.8-1,.47-2.1.9-3.14,1.36a11,11,0,0,0-.81-1.24L292,28.17A13.72,13.72,0,0,1,294,31.37Zm-7.55-4.06c.37-.84.6-1.74,1-2.57a13.54,13.54,0,0,1,3.18,2.06q-2,2-4.06,4.06a9.84,9.84,0,0,0-1.22-.9C285.73,29.08,286.1,28.19,286.49,27.31Zm-4.84-4a16.19,16.19,0,0,1,3.68.62c-.34.82-.79,1.59-1.1,2.42s-.69,1.73-1,2.6a7.76,7.76,0,0,0-1.54-.28Zm-1.94,0v5.36a7.76,7.76,0,0,0-1.54.28c-.35-.87-.7-1.73-1-2.6s-.77-1.6-1.1-2.42A16.09,16.09,0,0,1,279.71,23.32Zm-5.8,1.42c.36.83.59,1.73,1,2.57L276,30a9.84,9.84,0,0,0-1.22.9q-2-2-4.06-4.06A13.54,13.54,0,0,1,273.91,24.74Zm-4.56,3.43q2.06,2.07,4.12,4.12a11,11,0,0,0-.81,1.24c-1.05-.46-2.1-.89-3.14-1.36-.71-.33-1.48-.5-2.2-.8A13.72,13.72,0,0,1,269.35,28.17Zm-2.82,5.32c.8.34,1.56.78,2.38,1.1l2.84,1.13a11.49,11.49,0,0,0-.3,1.44h-5.56A17.22,17.22,0,0,1,266.53,33.49Zm-.66,5.61h5.5a9.64,9.64,0,0,0,.22,1.51c-.89.35-1.78.72-2.68,1.06s-1.6.77-2.42,1.11A16.19,16.19,0,0,1,265.87,39.1Zm1.41,5.8c.84-.37,1.74-.59,2.58-1l2.55-1.1a9.26,9.26,0,0,0,.89,1.29l-3.95,3.95A14.13,14.13,0,0,1,267.28,44.9Zm7.43,4.39c-.32.71-.49,1.48-.79,2.2a13.52,13.52,0,0,1-3.2-2l4-4a10,10,0,0,0,1.29.87C275.56,47.33,275.15,48.32,274.71,49.29Zm1.3,3.07c.34-.84.8-1.62,1.12-2.46l1.05-2.63a11.37,11.37,0,0,0,1.53.26v5.71s0,0,0,0A14.31,14.31,0,0,1,276,52.36Zm1.74-7.15c-3.91-1.87-6.4-6.88-3.76-10.91a7.66,7.66,0,0,1,13.38,0c2.64,4,.15,9-3.76,10.91a8.36,8.36,0,0,1-5.86,0Zm3.89,8.08s0,0,0,0V47.53a11.37,11.37,0,0,0,1.53-.26l1.05,2.63c.32.84.78,1.62,1.12,2.46A14.31,14.31,0,0,1,281.64,53.29Zm5.8-1.8c-.3-.72-.47-1.49-.8-2.2-.43-1-.84-2-1.26-2.93a10,10,0,0,0,1.29-.87l4,4A13.72,13.72,0,0,1,287.44,51.49ZM292,48.08l-3.95-3.95a9.26,9.26,0,0,0,.89-1.29l2.55,1.1c.84.37,1.74.59,2.57,1A13.75,13.75,0,0,1,292,48.08Zm2.86-5.3c-.82-.34-1.59-.79-2.42-1.11s-1.79-.71-2.68-1.06A9.64,9.64,0,0,0,290,39.1h5.5A16.19,16.19,0,0,1,294.87,42.78Z" fill="#4cb050"/><path d="M285.15,40a2.39,2.39,0,0,0,0-3.7,2.38,2.38,0,0,0-2.62-2.62,2.38,2.38,0,0,0-3.7,0,2.38,2.38,0,0,0-2.62,2.62,2.38,2.38,0,0,0,0,3.7,2.38,2.38,0,0,0,2.62,2.62,2.38,2.38,0,0,0,3.7,0A2.38,2.38,0,0,0,285.15,40Zm-4-.33a1,1,0,0,1-.94,0,1.61,1.61,0,1,1,.94,0Z" fill="#4cb050"/><path d="M280.68,36.49a1.62,1.62,0,0,0-.47,3.16,1,1,0,0,0,.94,0A1.62,1.62,0,0,0,280.68,36.49Z" fill="#4cb050"/><line x1="237.8" y1="37.98" x2="19.12" y2="37.98" fill="#4cb050" stroke="#377532" stroke-miterlimit="10" stroke-width="0.49"/><line x1="542.32" y1="37.98" x2="323.64" y2="37.98" fill="#4cb050" stroke="#377532" stroke-miterlimit="10" stroke-width="0.49"/></svg>